<?xml version="1.0" standalone="no"?>
<!DOCTYPE svg PUBLIC "-//W3C//DTD SVG 1.1//EN" "http://www.w3.org/Graphics/SVG/1.1/DTD/svg11.dtd" >
<!--
2013-9-30: Created.
-->
<svg>
<metadata>
Created by iconfont
</metadata>
<defs>

<font id="iconfont" horiz-adv-x="1024" >
  <font-face
    font-family="iconfont"
    font-weight="500"
    font-stretch="normal"
    units-per-em="1024"
    ascent="896"
    descent="-128"
  />
    <missing-glyph />
    
    <glyph glyph-name="map-clear" unicode="&#58942;" d="M554.4770368 183.75111146999996l-188.112592-194.18074134h-121.3629632L87.22962987 147.34222187l242.72592533 242.7259264 224.5214816-206.3170368z m121.3629632 625.01925866c-6.06814827 0-12.13629653 0-18.2044448-6.06814826L32.61629653 171.61481492999997c-6.06814827-12.13629653-6.06814827-30.34074027 0-42.4770368l194.18074027-194.18074133h740.31407467c18.2044448 0 30.34074027 12.13629653 30.34074026 30.34074133s-12.13629653 30.34074027-30.34074026 30.34074027H457.38666667L954.97481493 505.3629632c12.13629653 12.13629653 12.13629653 30.34074027 0 42.4770368l-254.86222186 254.86222187c-18.2044448 0-18.2044448 6.06814827-24.27259307 6.06814826z"  horiz-adv-x="1024" />

    
    <glyph glyph-name="map-circle" unicode="&#62083;" d="M512 880C238 880 16 658 16 384s222-496 496-496 496 222 496 496S786 880 512 880z m0-896c-221 0-400 179-400 400S291 784 512 784s400-179 400-400-179-400-400-400z"  horiz-adv-x="1024" />

    
    <glyph glyph-name="zuobiao" unicode="&#59380;" d="M1014.34732544 198.23323136l-248.67246535 91.57529827 0-73.59741838L621.80757731 216.21111125000004c-8.87192803 136.27258539-117.83364494 245.23430229-254.10623032 254.10623033L367.70134585 644.66354062l73.59741838 0L349.72346595 893.37093575l-91.57529827-248.70739513 73.59741838 0 0-174.34503395c-136.24114973-8.87425707-245.19937365-117.83480889-254.07130169-254.10623033L9.65151061 216.21227520000002l0-35.95575979 68.02277376 0c8.87192803-136.27142144 117.83015197-245.23313835 254.07130169-254.10739541l0-51.51889181 35.95692373 0 0 51.51889181c136.27375047 8.87192803 245.23430229 117.83480889 254.10623034 254.10739541l143.86611768 0 0-73.59741838L1014.34732544 198.23323136zM481.87444793 216.21227520000002l-114.17310094 0 0 114.17310094C426.98142834 322.39947775999997 473.88854841 275.49235882999994 481.87444793 216.21227520000002zM331.74558606 330.38304825l0-114.171937-114.13700835 0C225.59214933 275.48886585 272.49344739 322.39481969999997 331.74558606 330.38304825zM217.60857771 180.25651541000002l114.13700835 0 0-114.17193699C272.49577529 74.07746388999999 225.59564231 121.00204771000006 217.60857771 180.25651541000002zM367.70134585 66.08457841999996l0 114.17193699 114.171937 0C473.88621938 120.99971869000001 426.97910045 74.07397090999996 367.70134585 66.08457841999996z"  horiz-adv-x="1024" />

    
    <glyph glyph-name="tool" unicode="&#59000;" d="M887.00000029-28.499999709999997L136.99999971-28.499999709999997c-41.24999971 0-74.99999971 33.75-74.99999971 74.99999971L62 571.49999971c0 41.24999971 33.75 74.99999971 74.99999971 74.9999997l168.75 0L305.74999971 721.5c0 41.24999971 33.75 74.99999971 74.9999997 74.99999971l262.5000003 0c41.24999971 0 74.99999971-33.75 74.9999997-74.99999971l0-74.99999971 168.75 0c41.24999971 0 74.99999971-33.75 74.99999971-74.9999997l0-524.99999971C962 5.250000290000003 928.25-28.499999709999997 887.00000029-28.499999709999997zM643.24999971 702.75000029c0 11.25-7.49999971 18.74999971-18.74999971 18.74999971L399.5 721.5c-11.25 0-18.74999971-7.49999971-18.74999971-18.74999971l0-56.25 262.50000029 0L643.24999971 702.75000029zM887.00000029 552.75c0 11.25-7.49999971 18.74999971-18.74999971 18.74999971L155.75000029 571.49999971c-11.25 0-18.74999971-7.49999971-18.74999971-18.74999971l0-112.5 187.49999971 0c15.00000029 0 28.125-9.37500029 33.75-20.62500029l0 0 45-91.87499971 215.62499971 0 45 91.87499971 0 0c5.625 13.12499971 18.74999971 20.62500029 33.75 20.62500029l187.49999971 0L885.12499971 552.75zM887.00000029 365.25000029l-164.99999971 0-44.99999999-91.8749997 0 0c-5.625-13.12499971-18.74999971-20.62500029-33.75-20.6250003L380.75000029 252.75000029c-15.00000029 0-28.125 9.37500029-33.75 20.6250003l0-1e-8L302.00000029 365.25000029 136.99999971 365.25000029l0-299.99999971c0-11.25 7.49999971-18.74999971 18.74999971-18.7499997l712.50000029 0c11.25 0 18.74999971 7.49999971 18.74999971 18.7499997L887.00000029 365.25000029z"  horiz-adv-x="1024" />

    
    <glyph glyph-name="draw" unicode="&#58891;" d="M930.909091 16.290909c27.927273-9.309091 46.545455-18.618182 46.545454-27.927273 0-37.236364-209.454545-69.818182-465.454545-69.818181s-465.454545 32.581818-465.454545 69.818181c0 9.309091 18.618182 18.618182 46.545454 27.927273-55.854545-13.963636-93.090909-32.581818-93.090909-51.2 0-51.2 228.072727-93.090909 512-93.090909s512 41.890909 512 93.090909c0 18.618182-32.581818 37.236364-93.090909 51.2zM107.054545 44.218182c0-4.654545 0-4.654545 4.654546-4.654546l4.654545-4.654545 4.654546-4.654546s4.654545 0 4.654545-4.654545h9.309091l158.254546 27.927273c13.963636 0 23.272727 13.963636 18.618181 27.927272 0 13.963636-13.963636 23.272727-27.927272 18.618182l-125.672728-23.272727 23.272728 125.672727c0 13.963636-4.654545 23.272727-18.618182 27.927273-13.963636 0-23.272727-4.654545-27.927273-18.618182L107.054545 58.181818v-13.963636zM837.818182 626.036364c9.309091-9.309091 23.272727-9.309091 32.581818 0l97.745455 97.745454c9.309091 9.309091 9.309091 23.272727 4.654545 32.581818L837.818182 891.345455c-9.309091 9.309091-23.272727 9.309091-32.581818 0l-97.745455-97.745455c-9.309091-13.963636-9.309091-27.927273 0-37.236364L837.818182 626.036364z m-69.818182 158.254545l46.545455 46.545455c4.654545 4.654545 13.963636 4.654545 18.618181 0l79.127273-79.127273c4.654545-4.654545 4.654545-13.963636 0-18.618182l-46.545454-46.545454c-4.654545-4.654545-13.963636-4.654545-18.618182 0l-79.127273 79.127272c-4.654545 4.654545-4.654545 13.963636 0 18.618182zM181.527273 230.4l130.327272-130.327273 18.618182-18.618182 18.618182 18.618182 18.618182 18.618182 442.181818 442.181818c9.309091 9.309091 9.309091 23.272727 0 32.581818-9.309091 9.309091-23.272727 9.309091-32.581818 0L335.127273 151.272727l-97.745455 97.745455 442.181818 442.181818c9.309091 9.309091 9.309091 23.272727 0 32.581818-9.309091 9.309091-23.272727 9.309091-32.581818 0l-442.181818-442.181818-18.618182-18.618182-18.618182-18.618182 13.963637-13.963636z"  horiz-adv-x="1024" />

    
    <glyph glyph-name="map-polygon" unicode="&#60239;" d="M56.88888853 839.11111147L56.88888853 566.0444448000001 160.65422187 566.0444448000001 219.3635552 201.95555520000005 147.91111147 201.95555520000005 147.91111147-71.11111146999997 420.97777813-71.11111146999997 420.97777813 17.180444800000032 648.53333333 17.6355552 648.53333333-71.11111146999997 921.6-71.11111146999997 921.6 201.95555520000005 838.31466667 201.95555520000005 876.08888853 520.53333333 967.11111147 520.53333333 967.11111147 793.6 694.0444448 793.6 694.0444448 632.94577813 639.43111147 566.0444448000001 402.31822187 566.0444448000001 329.9555552 665.25866667 329.9555552 839.11111147M147.91111147 748.08888853L238.93333333 748.08888853 238.93333333 657.06666667 147.91111147 657.06666667M785.06666667 702.5777781300001L876.08888853 702.5777781300001 876.08888853 611.5555552000001 785.06666667 611.5555552000001M253.04177813 566.0444448000001L289.45066667 566.0444448000001 375.46666667 448.17066667 375.46666667 292.97777813000005 648.53333333 292.97777813000005 648.53333333 433.60711147 719.98577813 520.53333333 785.06666667 520.53333333 746.83733333 201.95555520000005 648.53333333 201.95555520000005 648.53333333 108.20266666999999 420.97777813 108.20266666999999 420.97777813 201.95555520000005 311.75111147 201.95555520000005M466.48888853 475.02222187L557.51111147 475.02222187 557.51111147 384 466.48888853 384M238.93333333 110.93333332999998L329.9555552 110.93333332999998 329.9555552 19.911111470000037 238.93333333 19.911111470000037M739.5555552 110.93333332999998L830.57777813 110.93333332999998 830.57777813 19.911111470000037 739.5555552 19.911111470000037"  horiz-adv-x="1024" />

    
    <glyph glyph-name="map-marker" unicode="&#59363;" d="M375.46666667 406.7555552A113.77777813 113.77777813 0 0 1 489.2444448 520.53333333 113.77777813 113.77777813 0 0 1 375.46666667 634.31111147 113.77777813 113.77777813 0 0 1 261.68888853 520.53333333 113.77777813 113.77777813 0 0 1 375.46666667 406.7555552M375.46666667 839.11111147c175.67288853 0 318.57777813-142.44977813 318.57777813-318.57777814 0-238.93333333-318.57777813-591.6444448-318.57777813-591.6444448S56.88888853 281.6 56.88888853 520.53333333a318.57777813 318.57777813 0 0 0 318.57777814 318.57777814m273.06666666-682.66666667h136.53333334v136.53333333h91.02222186v-136.53333333h136.53333334v-91.02222293h-136.53333334v-136.53333334h-91.02222186v136.53333334h-136.53333334v91.02222293z"  horiz-adv-x="1024" />

    
    <glyph glyph-name="map-polyline" unicode="&#59667;" d="M694.0444448 839.11111147v-273.06666667h49.152l-96.93866667-227.55555627h-31.40266666L512 476.3875552V702.5777781300001H238.93333333v-273.06666666h41.41511147l-92.38755627-227.55555627H56.88888853v-273.06666667h273.06666667v273.06666667h-43.69066667l92.38755627 227.55555627h54.61333333L512 323.92533332999994V65.42222187000004h273.06666667v273.06666666h-40.04977814l96.93866667 227.55555627H967.11111147V839.11111147m-182.0444448-91.02222294h91.02222186v-91.02222186h-91.02222186M329.9555552 611.5555552000001h91.02222293v-91.02222187H329.9555552m273.06666667-273.06666666h91.02222293v-91.02222187h-91.02222293M147.91111147 110.93333332999998h91.02222186v-91.02222186H147.91111147"  horiz-adv-x="1024" />

    
    <glyph glyph-name="map-rectangle" unicode="&#59668;" d="M56.88888853 748.08888853h273.06666667v-91.02222186h364.0888896V748.08888853h273.06666667v-273.06666666h-91.02222294v-182.04444374h91.02222294v-273.06666666h-273.06666667v91.02222186H329.9555552v-91.02222186H56.88888853v273.06666666h91.02222294v182.04444374H56.88888853V748.08888853m637.15555627-273.06666666V566.0444448000001H329.9555552v-91.02222293H238.93333333v-182.04444374h91.02222187v-91.02222293h364.0888896v91.02222293h91.02222187v182.04444374h-91.02222187M147.91111147 657.06666667v-91.02222187h91.02222186V657.06666667H147.91111147m637.1555552 0v-91.02222187h91.02222186V657.06666667h-91.02222186M147.91111147 201.95555520000005v-91.02222187h91.02222186v91.02222187H147.91111147m637.1555552 0v-91.02222187h91.02222186v91.02222187h-91.02222186z"  horiz-adv-x="1024" />

    
    <glyph glyph-name="position" unicode="&#59329;" d="M512 534.00000029c-82.50000029 0-150.00000029-67.5-150.00000029-150.00000029s67.5-150.00000029 150.00000029-150.00000029 150.00000029 67.5 150.00000029 150.00000029-67.5 150.00000029-150.00000029 150.00000029z m373.12499971-121.87500029c-13.12499971 183.75000029-161.25000029 331.875-344.99999971 344.99999971V834h-56.25v-76.87500029c-183.75000029-13.12499971-331.875-161.25000029-344.99999971-344.99999971H62v-56.25h76.87500029c13.12499971-183.75000029 161.25000029-331.875 344.99999971-344.99999971V-66h56.25v76.87500029c183.75000029 13.12499971 331.875 161.25000029 344.99999971 344.99999971H962v56.25h-76.87500029zM512 65.24999971c-176.24999971 0-318.75000029 142.49999971-318.75000029 318.75000029S335.75000029 702.75000029 512 702.75000029s318.75000029-142.49999971 318.75000029-318.75000029-142.49999971-318.75000029-318.75000029-318.75000029z"  horiz-adv-x="1024" />

    
    <glyph glyph-name="juli-copy" unicode="&#59516;" d="M51.17269333 190.94793482l653.86723556 653.87937185a14.04169482 14.04169482 0 0 0 19.86711703 0l247.90812445-247.94453334a14.04169482 14.04169482 0 0 0 0-19.86711703L319.03288889-76.82730666999998a14.04169482 14.04169482 0 0 0-19.86711704 0L51.17269333 171.08081777999996a14.04169482 14.04169482 0 0 0 0 19.86711704z m39.75850667-19.86711704L299.11722667-37.12948147999998a14.04169482 14.04169482 0 0 1 19.91566222 0l614.09659259 614.09659259a14.04169482 14.04169482 0 0 1 0 19.86711704L724.90704592 805.12948148a14.04169482 14.04169482 0 0 1-19.86711703 0l-43.48434964-43.48434963a14.04169482 14.04169482 0 0 1 0-19.86711703l50.11076742-50.09863112a14.04169482 14.04169482 0 0 0 0-19.86711703 14.04169482 14.04169482 0 0 0-19.86711704 0l-50.09863111 50.09863111a14.04169482 14.04169482 0 0 1-19.86711704 0l-41.33622518-41.32408889a14.04169482 14.04169482 0 0 1 0-19.86711704l121.56928-121.60568888a14.04169482 14.04169482 0 0 0 0-19.86711705 14.04169482 14.04169482 0 0 0-19.86711705 0L560.64227555 640.8040296300001a14.04169482 14.04169482 0 0 1-19.86711703 0l-41.26340741-41.26340741a14.04169482 14.04169482 0 0 1 0-19.86711704l50.09863111-50.1107674a14.04169482 14.04169482 0 0 0 0-19.86711703 14.04169482 14.04169482 0 0 0-19.86711704 0l-50.1107674 50.1107674a14.04169482 14.04169482 0 0 1-19.86711703 0l-41.3240889-41.3240889a14.04169482 14.04169482 0 0 1 0-19.86711703L539.91348148 377.00949333000005a14.04169482 14.04169482 0 0 0 0-19.86711703 14.04169482 14.04169482 0 0 0-19.86711703 0L398.50135703 478.66311111a14.04169482 14.04169482 0 0 1-19.86711703 0l-41.26340741-41.26340741a14.04169482 14.04169482 0 0 1 0-19.86711703l50.09863111-50.08649482a14.04169482 14.04169482 0 0 0 0-19.86711703A14.04169482 14.04169482 0 0 0 367.57807408 347.59111111000004l-50.12290371 50.03794964a14.04169482 14.04169482 0 0 1-19.86711704 0l-41.32408888-41.3362252a14.04169482 14.04169482 0 0 1 0-19.86711703l121.5571437-121.54500741a14.04169482 14.04169482 0 0 0 0-19.86711703 14.04169482 14.04169482 0 0 0-19.86711704 0L236.39684741 316.55860148a14.04169482 14.04169482 0 0 1-19.86711704 0l-41.2634074-41.2634074a14.04169482 14.04169482 0 0 1 0-19.86711705l50.09863111-50.09863111a14.04169482 14.04169482 0 0 0 0-19.86711703 14.04169482 14.04169482 0 0 0-19.86711705 0l-50.09863111 50.08649481a14.04169482 14.04169482 0 0 1-19.86711703 0l-44.52807111-44.5402074a14.04169482 14.04169482 0 0 1-0.06068148-19.91566222z m-9.92749037 9.92749037M309.05685333-95.49293036999995a28.5202963 28.5202963 0 0 0-20.23120592 8.36190815l-247.94453333 247.92026074a28.64165925 28.64165925 0 0 0 0 40.46241185L694.74834963 855.13102222a28.42320592 28.42320592 0 0 0 20.23120592 8.38618075 28.42320592 28.42320592 0 0 0 20.23120593-8.38618075l247.90812444-247.94453333a28.64165925 28.64165925 0 0 0 0-40.46241186L329.28805925-87.13102221999998a28.53243259 28.53243259 0 0 0-20.23120592-8.36190815z m-14.17519408 43.48434962l14.16305778-14.16305777 14.16305779 14.16305777a28.72661333 28.72661333 0 0 0-28.32611557 0z m-193.2826548 233.0168889l207.45784888-207.42144 613.36841482 613.36841482-207.4457126 207.45784888L672.19911111 751.6690963l49.75881481-49.75881482a28.61738667 28.61738667 0 0 0-40.46241184-40.47454815l-49.75881483 49.75881482-40.5959111-40.59591112 121.19305482-121.19305481A28.60525037 28.60525037 0 1 0 671.8957037 509.00385185l-121.19305481 121.19305482-40.58377481-40.58377482 49.75881481-49.75881482a28.60525037 28.60525037 0 0 0 0-40.46241185l-0.06068148-0.06068148a28.64165925 28.64165925 0 0 0-40.40173038 0.06068148l-49.75881481 49.75881482-40.59591111-40.59591111 121.20519111-121.18091852a28.61738667 28.61738667 0 0 0-40.47454814-40.48668445l-121.21732741 121.12023705-40.57163852-40.58377482 49.75881482-49.75881482a28.61738667 28.61738667 0 0 0-40.47454815-40.47454815l-49.75881482 49.75881482L266.93176889 346.37748148000003l121.19305481-121.18091851a28.64165925 28.64165925 0 0 0 0-40.46241186l-0.08495407-0.08495408a28.60525037 28.60525037 0 0 0-40.38959408 0.07281779l-121.1930548 121.19305481-40.59591112-40.60804741 49.75881482-49.75881481a28.61738667 28.61738667 0 0 0-40.46241186-40.46241186l-49.75881481 49.75881482z m-39.75850667 0l14.17519407-14.17519407a28.72661333 28.72661333 0 0 0 0 28.33825184z m-0.36408889-0.3640889zM145.39889778 254.14162963a28.41106963 28.41106963 0 0 0 16.0441837-4.85451852 28.70234075 28.70234075 0 0 0-1.21362963 30.18296889L131.27224889 250.50074074999998a28.44747852 28.44747852 0 0 0 14.12664889 3.64088888z m81.05832297 81.04618667a28.58097778 28.58097778 0 0 0 16.0441837-4.85451852 28.70234075 28.70234075 0 0 0-1.21362963 30.19510519l-29.01788445-29.01788445a28.62952297 28.62952297 0 0 0 14.18733038 3.71370666z m81.07045925 81.08259555a28.41106963 28.41106963 0 0 0 16.03204741-4.85451852 28.67806815 28.67806815 0 0 0-1.21362963 30.1586963l-28.96933926-28.96933926a28.44747852 28.44747852 0 0 0 14.15092148 3.70157038z m81.04618667 81.03405037a28.58097778 28.58097778 0 0 0 16.05632-4.85451852 28.67806815 28.67806815 0 0 0-1.21362964 30.1708326l-28.98147555-28.98147555a28.62952297 28.62952297 0 0 0 14.13878519 3.70157036z m559.48325925 103.72892445a28.72661333 28.72661333 0 0 0 0-28.21688889l14.1145126 14.11451259zM469.64432592 578.4234666699999a28.41106963 28.41106963 0 0 0 16.0684563-4.9273363 28.70234075 28.70234075 0 0 0-1.21362963 30.20724148l-28.98147556-28.98147555a28.44747852 28.44747852 0 0 0 14.12664889 3.70157037z m81.05832297 81.07045925a28.58097778 28.58097778 0 0 0 16.01991111-4.85451851 28.67806815 28.67806815 0 0 0-1.21362963 30.15869629l-29.00574815-29.00574815a28.61738667 28.61738667 0 0 0 14.19946667 3.70157037z m81.05832296 81.07045926a28.41106963 28.41106963 0 0 0 16.00777482-4.85451851 28.67806815 28.67806815 0 0 0-1.21362964 30.14656L617.58577778 736.81426963a28.44747852 28.44747852 0 0 0 14.18733037 3.72584296z m83.2064474 93.63152593l-14.12664888-14.12664889a28.71447703 28.71447703 0 0 0 28.25329778 0z"  horiz-adv-x="1024" />

    
    <glyph glyph-name="bianji-copy-copy" unicode="&#59515;" d="M508.98672485 115.35873413000002a27.77947998 27.77947998 0 0 0-8.54132079 4.64556884c-12.0333252 9.5861206-14.0158081 27.11123657-4.4296875 39.14291383L862.24688721 618.84594727a27.86270141 27.86270141 0 0 0 3.57769776 8.65750122c10.05249023 16.00405883 4.48571777 39.24920654-12.67190552 52.91812133-17.16009521 13.67138672-41.05865479 13.90045166-54.41116333 0.5256958a27.85363769 27.85363769 0 0 0-7.64071656-5.4225769L424.86880493 215.82678222000004c-9.58529663-12.03250122-27.11288452-14.01910401-39.14291381-4.42968749-12.0333252 9.5861206-14.0158081 27.11123657-4.4296875 39.14291381l367.75387573 461.60870362c3.93859864 4.94384766 8.78356934 8.98132325 14.24404907 11.90808105 33.88925171 30.01245117 86.44976807 30.30908203 124.57260132-0.0617981 38.12283325-30.37170411 49.57937622-81.66824341 27.89978027-121.40771484-1.6322937-5.97875977-4.48654175-11.60403443-8.42596436-16.54870605L539.58831787 124.43399047000003c-7.48910523-9.40155029-19.82565308-12.66860962-30.60159302-9.07525634zM851.39596557 556.1620788600001a27.77700805 27.77700805 0 0 0-9.07772826 5.08639526l-97.4143982 81.68719482c-11.78778076 9.88522339-13.33108521 27.45401001-3.44586182 39.24261475 9.88604737 11.78778076 27.45236206 13.33108521 39.24261475 3.44586181l97.41439819-81.68719482c11.78778076-9.88522339 13.33108521-27.45401001 3.44586182-39.24261474-7.56573487-9.02252198-19.633667-12.04321289-30.16488648-8.53225708zM411.74783325 102.66787719000001a43.06915283 43.06915283 0 0 0-13.22396851 7.19824219c-8.99368286 7.1652832-14.66015625 17.40481568-15.95214843 28.83169556l-10.07226563 89.00903321c-1.72952271 15.28637695 9.25982666 29.08135987 24.54702759 30.81088256 15.28637695 1.73034668 29.08053589-9.26065063 30.81088257-24.54702758l8.64926148-76.42858888 76.42858886 8.64926148c15.28637695 1.73034668 29.08135987-9.26065063 30.81088257-24.54702758s-9.25982666-29.08135987-24.54702758-30.81088257l-89.00985719-10.07308961c-6.31906128-0.71438599-12.58291626-0.0453186-18.44137573 1.90750122zM837.01019287-37.27432251000005H159.49459839c-24.34515381 0-44.15185547 19.80670166-44.15185547 44.15267944V660.13943482c0 24.34515381 19.80670166 44.15185547 44.15185547 44.15185546h493.47344971c14.56210328 0 26.3671875-11.80508422 26.3671875-26.3671875 0-14.56210328-11.80508422-26.3671875-26.3671875-26.3671875H168.07711792v-636.09686279h660.35055542V444.48468018c0 14.56210328 11.80508422 26.3671875 26.3671875 26.3671875s26.3671875-11.80508422 26.3671875-26.3671875v-437.60549927c0-24.34597778-19.80670166-44.15350342-44.15185547-44.15350342z"  horiz-adv-x="1024" />

    
    <glyph glyph-name="shishilukuang-copy" unicode="&#59511;" d="M622.4-4.7999999999999545H401.6c-52.8 0-91.2 43.2-91.2 91.2V734.4c0 52.8 43.2 91.2 91.2 91.2h220.8c52.8 0 91.2-43.2 91.2-91.2v-648c0-52.8-43.2-91.2-91.2-91.2zM401.6 777.6c-24 0-43.2-19.2-43.2-43.2v-648c0-24 19.2-43.2 43.2-43.2h220.8c24 0 43.2 19.2 43.2 43.2V734.4c0 24-19.2 43.2-43.2 43.2H401.6zM512 518.4c-62.4 0-110.4 48-110.4 110.4s48 110.4 110.4 110.4c62.4 0 110.4-48 110.4-110.4s-48-110.4-110.4-110.4z m0 168c-33.6 0-62.4-28.8-62.4-62.4s28.8-57.6 62.4-57.6 62.4 28.8 62.4 62.4-28.8 57.6-62.4 57.6zM512 302.4c-62.4 0-110.4 48-110.4 110.4 0 62.4 48 110.4 110.4 110.4 62.4 0 110.4-48 110.4-110.4 0-62.4-48-110.4-110.4-110.4z m0 168c-33.6 0-62.4-28.8-62.4-62.4 0-33.6 28.8-62.4 62.4-62.4s62.4 28.8 62.4 62.4c0 38.4-28.8 62.4-62.4 62.4zM512 86.39999999999998c-62.4 0-110.4 48-110.4 110.4s48 110.4 110.4 110.4c62.4 0 110.4-48 110.4-110.4s-48-110.4-110.4-110.4z m0 168c-33.6 0-62.4-28.8-62.4-62.4s28.8-62.4 62.4-62.4 62.4 28.8 62.4 62.4-28.8 62.4-62.4 62.4zM320 552S224 614.4 209.6 624c-19.2 19.2-33.6 33.6-33.6 67.2s28.8 62.4 62.4 62.4h91.2c14.4 0 24-9.6 24-24s-4.8-24-19.2-24H243.2c-4.8 0-19.2 0-19.2-14.4 0-19.2 4.8-19.2 14.4-24 14.4-9.6 110.4-72 110.4-72l-28.8-43.2zM320 336S224 398.4 209.6 408c-19.2 19.2-33.6 33.6-33.6 67.2s28.8 62.4 62.4 62.4h91.2c14.4 0 24-9.6 24-24s-4.8-24-19.2-24H243.2c-4.8 0-19.2 0-19.2-14.4s0-19.2 14.4-24c14.4-9.6 110.4-72 110.4-72L320 336zM320 120S224 182.39999999999998 209.6 192c-19.2 14.4-33.6 28.8-33.6 67.2 0 33.6 28.8 62.4 62.4 62.4h91.2c14.4 0 24-9.6 24-24s-9.6-24-24-24H243.2c-4.8 0-14.4 0-14.4-14.4s0-19.2 14.4-24c14.4-9.6 110.4-72 110.4-72l-33.6-43.2zM704 552l-24 38.4s96 62.4 110.4 72c4.8 9.6 9.6 9.6 9.6 28.8 0 14.4-9.6 14.4-14.4 14.4h-91.2c-14.4 0-24 9.6-24 24s9.6 24 24 24h91.2c38.4 0 62.4-28.8 62.4-62.4 0-33.6-9.6-48-33.6-62.4-14.4-14.4-110.4-76.8-110.4-76.8zM704 336l-24 38.4s96 62.4 110.4 72c4.8 9.6 9.6 14.4 9.6 28.8s-9.6 14.4-14.4 14.4h-91.2c-14.4 0-24 9.6-24 24s9.6 24 24 24h91.2c38.4 0 62.4-28.8 62.4-62.4 0-33.6-9.6-48-33.6-62.4C800 398.4 704 336 704 336zM704 120l-24 38.4s96 62.4 110.4 72c4.8 9.6 9.6 9.6 9.6 28.8 0 14.4-9.6 14.4-14.4 14.4h-91.2c-14.4 0-24 9.6-24 24s9.6 24 24 24h91.2c38.4 0 62.4-28.8 62.4-62.4 0-33.6-9.6-48-33.6-62.4-14.4-14.4-110.4-76.8-110.4-76.8zM444.8-86.39999999999998c-14.4 0-24 9.6-24 24v76.8c0 14.4 9.6 24 24 24s24-9.6 24-24v-76.8c0-9.6-9.6-24-24-24zM579.2-86.39999999999998c-14.4 0-24 9.6-24 24v76.8c0 14.4 9.6 24 24 24s24-9.6 24-24v-76.8c0-9.6-9.6-24-24-24z"  horiz-adv-x="1024" />

    
    <glyph glyph-name="weizhi-copy" unicode="&#59512;" d="M511.99945387 377.5501696c79.0079712 0 143.29015573 64.2407072 143.29015679 143.23885333 0 79.06036373-64.2832768 143.37311147-143.29015679 143.37311255S368.70929813 599.83956373 368.70929813 520.78902293c-0.0010912-78.9981472 64.2832768-143.23885439 143.29015574-143.23885333z m0 234.16083733c50.091248 0 90.8706816-40.77179307 90.84885226-90.921984 0-50.06832533-40.75869547-90.80955627-90.84885226-90.80955625-50.09888853 0-90.86085867 40.74123093-90.86085761 90.80955625 0 50.15018987 40.74996268 90.921984 90.86085761 90.921984zM239.10470293 348.02655786l253.60747627-315.90090026c5.27425707-6.51641386 13.18673281-18.95217706 21.5085312-18.952176h0.97582507c8.66999573 0 16.69708267 13.30898347 21.72465386 20.40063147l236.67571521 343.8428896c2.87398933 2.79103361 5.13999893 6.0852608 6.61792639 9.85102826 28.7235232 47.12338667 41.04030934 94.195472 41.04030935 156.53910614 0 173.17397119-144.5334048 313.8259072-322.19136748 313.8259072-176.33394134 0-319.77691094-144.02911893-319.77691093-320.34232107 0-63.90233386 18.7993632-126.696768 54.3482016-179.41313813 1.56961494-2.34023253 3.13813867-6.81440107 5.46963946-9.85102719z m259.94924587 454.60118613c147.0559232 0 266.69269653-115.99434987 266.69269653-258.52480319 0-53.89630934-10.27344854-92.09210027-34.66688533-130.62626453L512.65982827 104.23845440000002l-229.8711392 282.27969707c-1.0260352 1.40588588-2.0116832 2.89363733-3.07810454 4.47416853-29.38062187 43.58356587-44.91632001 94.54585173-44.91632 147.38556374 0 145.7209856 118.5583456 264.24986027 264.25968427 264.24986027zM706.14383467 159.6028672c-14.81965653 4.00153707-30.05955093-4.5669472-34.16369067-19.3243872-4.105232-14.74543253 4.5669472-30.05736853 19.303648-34.17242347 71.85628799-19.90835414 97.91102827-46.44664 97.91102827-59.386688 0-27.54358293-97.31614613-81.14190507-275.72289707-81.14190506-178.39692586 0-275.71416427 53.5983232-275.71416427 81.14190506 0 13.29042773 26.9912704 40.3613792 101.3078592 60.31121174 14.80874133 3.9906208 23.58352426 19.19012908 19.6027264 34.01742614-3.97315733 14.79891733-19.15083413 23.6031712-33.98904641 19.60163519-91.85523947-24.69033174-142.42894187-65.12375254-142.42894185-113.94118827 0-89.6809184 166.64882559-136.6198368 331.23029973-136.61983679 164.5945728 0 331.23139093 46.9389184 331.23139093 136.63075199 0 48.0053408-49.22785068 88.1003872-138.56821226 112.88349867z"  horiz-adv-x="1024" />

    
    <glyph glyph-name="check" unicode="&#58885;" d="M544.234145 749.821733c-202.342428 0-366.335433-163.993005-366.335433-366.335433 0-202.343451 163.993005-366.332363 366.335433-366.332363 202.366987 0 366.331339 163.988912 366.331339 366.332363C910.565485 585.828728 746.577596 749.821733 544.234145 749.821733L544.234145 749.821733zM475.964272 205.558935 312.25984 369.263367l37.042661 37.042661L475.964272 279.644257l263.221983 263.225053 37.042661-37.042661L475.964272 205.558935 475.964272 205.558935zM475.964272 205.558935"  horiz-adv-x="1024" />

    
    <glyph glyph-name="shanchu2" unicode="&#58883;" d="M513.852 751.086c-203.711 0-368.936-165.192-368.936-368.936 0-203.756 165.203-368.936 368.936-368.936 203.756 0 368.936 165.143 368.936 368.936 0.005 203.711-165.177 368.936-368.936 368.936zM665.109 279.759c6.27-6.218 10.153-14.838 10.153-24.363 0-0.025 0-0.050 0-0.076 0-0.003 0-0.008 0-0.017 0-19.086-15.472-34.558-34.558-34.558-9.555 0-18.204 3.877-24.46 10.146l-102.39 102.331-102.319-102.364c-6.255-6.272-14.905-10.153-24.462-10.153-0.016 0-0.031 0-0.046 0-19.061 0-34.558 15.463-34.558 34.598 0 0.018 0 0.037 0 0.056 0 9.517 3.866 18.129 10.115 24.354l102.379 102.435-102.355 102.349c-6.25 6.245-10.117 14.875-10.117 24.408 0 0.021 0 0.042 0 0.063 0 19.093 15.486 34.583 34.586 34.583 0.010 0 0.023 0 0.036 0 9.533 0 18.162-3.865 24.409-10.116l102.319-102.378 102.39 102.352c6.256 6.25 14.896 10.116 24.438 10.116 19.098 0 34.579-15.482 34.579-34.579 0-0.003 0-0.007 0-0.007 0-0.020 0-0.044 0-0.067 0-9.537-3.882-18.168-10.15-24.398l-102.321-102.321 102.33-102.396z"  horiz-adv-x="1025" />

    
    <glyph glyph-name="shanchu1" unicode="&#59020;" d="M555.4 384l304.6 304.6c4.8 4.8 4.8 12.6 0 17.4l-26 26c-4.8 4.8-12.6 4.8-17.4 0L512 427.4 207.4 732c-4.8 4.8-12.6 4.8-17.4 0l-26-26c-4.8-4.8-4.8-12.6 0-17.4L468.6 384 164 79.4c-4.8-4.8-4.8-12.6 0-17.4l26-26c4.8-4.8 12.6-4.8 17.4 0L512 340.6l304.6-304.6c4.8-4.8 12.6-4.8 17.4 0l26 26c4.8 4.8 4.8 12.6 0 17.4L555.4 384z"  horiz-adv-x="1024" />

    
    <glyph glyph-name="jinggao" unicode="&#58907;" d="M510.976694 749.695866c-201.970968 0-365.695866-163.728992-365.695866-365.695866s163.728992-365.695866 365.695866-365.695866 365.695866 163.728992 365.695866 365.695866S712.947661 749.695866 510.976694 749.695866L510.976694 749.695866zM480.489332 566.848445c0 16.82827 13.631462 30.475082 30.475082 30.475082 16.844643 0 30.472012-13.646811 30.472012-30.475082l0-216.70146c0-16.82827-13.627369-30.475082-30.472012-30.475082-16.84362 0-30.475082 13.646811-30.475082 30.475082L480.489332 566.848445 480.489332 566.848445zM510.976694 201.152579c-23.663956 0-42.846854 19.178805-42.846854 42.842761s19.182898 42.846854 42.846854 42.846854c23.663956 0 42.846854-19.182898 42.846854-42.846854C553.823548 220.335477 534.64065 201.152579 510.976694 201.152579L510.976694 201.152579zM510.976694 201.152579"  horiz-adv-x="1024" />

    
    <glyph glyph-name="sousuo" unicode="&#59017;" d="M918.282-60.401l-128.545 128.588c-1.346 1.29-2.986 1.9-4.413 2.919 125.188 149.643 117.692 373.406-22.822 513.913-72.022 72.022-167.726 111.7-269.566 111.7-101.797 0-197.518-39.718-269.527-111.7-148.628-148.619-148.628-390.493 0-539.131 72.022-71.94 167.726-111.647 269.527-111.647 90.389 0 175.913 31.392 244.389 88.765 1.038-1.346 1.632-2.986 2.841-4.29l128.676-128.599c6.803-6.803 15.805-10.22 24.727-10.22s17.913 3.417 24.727 10.22c13.74 13.671 13.74 35.794 0 49.488M492.944 4.194c-83.141 0-161.269 32.393-220.053 91.218-121.308 121.308-121.308 318.749 0 440.163 58.779 58.757 136.929 91.121 220.053 91.121s161.365-32.345 220.037-91.121c121.446-121.435 121.446-318.867 0-440.163-58.685-58.822-136.906-91.218-220.037-91.218z"  horiz-adv-x="1024" />

    
    <glyph glyph-name="yonghu2" unicode="&#59133;" d="M637.953132 347.721749c71.730695 40.298821 120.348995 116.815519 120.348995 204.542536 0 129.46256-105.705484 234.781234-235.641835 234.781234-129.936351 0-235.628532-105.318674-235.628532-234.781234 0-84.393085 45.041846-158.307516 112.302739-199.683878-152.041812-47.787376-262.605953-189.523471-262.605953-356.600721 0-5.058203 0.560772-9.956769 0.762363-14.97404l52.356438 0c-0.230244 4.986571-0.76134 9.914814-0.76134 14.97404 0 177.279612 144.855132 321.502341 322.909387 321.502341 178.054255 0 322.910411-144.222729 322.910411-321.502341 0-5.058203-0.532119-9.987468-0.775666-14.97404l52.371788 0c0.200568 5.016247 0.760317 9.914814 0.760317 14.97404C887.263268 158.068318 783.009855 295.982364 637.953132 347.721749zM339.389222 552.264285c0 100.588953 82.208327 182.423773 183.27107 182.423773 101.06479 0 183.272094-81.83482 183.272094-182.423773 0-100.589976-82.207303-182.423773-183.272094-182.423773C421.597549 369.840512 339.389222 451.674309 339.389222 552.264285z"  horiz-adv-x="1024" />

    
    <glyph glyph-name="weibiaoti2zhuanhuan" unicode="&#58991;" d="M480 832l64 0 0-896-64 0L480 832zM512 864c17.664 0 32-14.336 32-32s-14.336-32-32-32c-17.696 0-32 14.336-32 32S494.304 864 512 864zM512-32c17.664 0 32-14.304 32-32 0-17.664-14.336-32-32-32-17.696 0-32 14.336-32 32C480-46.304 494.304-32 512-32zM64 416l896 0 0-64L64 352 64 416zM960 416c17.664 0 32-14.304 32-32 0-17.696-14.304-32-32-32-17.696 0-32 14.336-32 32C928 401.696 942.304 416 960 416zM64 416c17.664 0 32-14.304 32-32 0-17.696-14.336-32-32-32-17.696 0-32 14.336-32 32C32 401.696 46.304 416 64 416z"  horiz-adv-x="1024" />

    
    <glyph glyph-name="kejian" unicode="&#59101;" d="M515.376836 84.536025c-102.533027 7.879285-190.126112 42.466274-266.565404 100.793445-62.522634 47.68502-117.984611 103.965624-167.818527 165.362646-17.702808 21.795943-25.377436 42.261617-4.502448 67.127411 72.243829 85.955831 148.78545 165.362646 250.192865 219.392026 167.511542 89.434996 317.013291 49.424603 457.203158-56.996902 58.736484-44.615169 109.798341-98.951534 156.97172-156.255421 19.954032-24.251824 23.330868-45.84311 1.637254-71.015889-81.555711-94.858399-167.306885-184.191066-286.007795-233.820326C609.31428 99.27131 559.68502 92.108324 515.376836 84.536025zM510.976716 141.32827c40.931348-2.967523 82.27201 4.195463 122.180074 21.284301 100.998101 43.387229 178.051364 117.063655 250.602178 196.675127 18.316778 20.158689 15.451584 39.396423-2.148896 58.429499-63.238933 68.45768-128.933746 134.459478-212.740682 177.642051-108.672729 55.87129-217.8571 54.336365-325.19956-4.809433-78.281203-43.182572-140.701509-105.398221-201.177576-169.865094-20.977316-22.409913-23.433197-43.387229-1.023284-65.592485 36.940542-36.531228 70.811232-76.950934 111.537923-108.570401C327.808934 188.296992 406.49945 134.676926 510.976716 141.32827zM718.293994 385.483761c-1.125612-105.398221-103.044669-206.191666-208.033576-205.782352-106.933147 0.409313-209.67083 105.50055-206.907964 211.615069 2.762866 105.705206 105.807535 205.373039 210.387129 203.4288C619.240132 592.801039 719.419606 490.370341 718.293994 385.483761zM662.320376 383.948836c0.818627 86.67213-63.648246 154.004197-148.273808 154.822824C427.27211 539.590287 360.04237 475.123414 359.223743 390.497852c-0.818627-86.67213 63.648246-154.004197 148.273808-154.822824C594.067353 234.754072 661.501749 299.425602 662.320376 383.948836zM512.920955 442.173678c28.549615-9.823524 53.824723-26.093734 50.550215-58.838813-2.762866-28.24263-24.45648-51.061857-54.234036-48.912961-30.596183 2.148896-53.824723 24.45648-51.164185 56.689917C460.426501 419.763765 483.041071 436.647946 512.920955 442.173678z"  horiz-adv-x="1024" />

    
    <glyph glyph-name="shezhi1" unicode="&#59054;" d="M640.516 7.05C640.516 7.05 640.516 7.05 640.516 7.05c-13.9 0.002-27.404 6.01-36.132 16.066-11.886 13.62-49.55 49.036-80.378 49.036-30.616 0-68.862-35.622-79.844-48.1-8.706-9.886-22.12-15.79-35.882-15.79-6.556 0-12.742 1.314-18.39 3.908l-0.988 0.452-93.706 54.758-0.93 0.68c-17.06 12.484-23.554 36.89-15.102 56.782 0.064 0.152 8.642 20.834 8.642 39.696 0 57.234-44.558 103.804-99.332 103.804l-3.32 0c-0.202-0.008-0.402-0.01-0.604-0.01-15.69 0-28.462 14.56-32.542 37.104-0.328 1.804-7.998 44.562-7.998 78.244 0 33.69 7.668 76.446 7.994 78.248 4.134 22.826 17.186 37.492 33.15 37.096l3.322 0c54.772 0 99.332 46.566 99.332 103.804 0 18.854-8.574 39.534-8.662 39.742-8.442 19.87-1.906 44.274 15.224 56.714l0.968 0.706 98.898 56.764 1.028 0.458c5.57 2.482 11.668 3.738 18.128 3.738 13.73 0 27.174-5.774 35.958-15.448 11.704-12.808 48.704-46.116 78.65-46.116 29.662 0 66.438 32.652 78.1 45.232 8.732 9.478 22.078 15.152 35.678 15.152 6.59 0 12.802-1.302 18.462-3.872l0.998-0.454 95.52-55.458 0.944-0.688c17.088-12.464 23.598-36.874 15.138-56.776-0.062-0.152-8.642-20.836-8.642-39.694 0-57.24 44.562-103.804 99.332-103.804l3.32 0c15.944 0.37 29.016-14.268 33.146-37.096 0.33-1.802 8-44.558 8-78.246 0-33.684-7.67-76.442-8-78.246-4.13-22.826-17.202-37.436-33.148-37.094l-3.318 0c-54.77 0-99.332-46.57-99.332-103.804 0-18.856 8.574-39.53 8.66-39.738 8.44-19.86 1.916-44.264-15.188-56.72l-0.958-0.698-97.126-56.098-1.01-0.458C653.016 8.318 646.936 7.05 640.516 7.05L640.516 7.05zM637.564 54.874c0.436-0.296 1.66-0.804 2.95-0.804 0.056 0 0.104 0 0.15 0.004l90.744 52.418c-2.19 5.314-12.208 31.124-12.208 58.044 0 80.51 60.684 146.488 136.756 150.62 1.098 6.316 7.04 41.854 7.04 68.526 0 26.664-5.94 62.194-7.038 68.528-76.074 4.128-136.758 70.108-136.758 150.62 0 26.958 10.048 52.8 12.22 58.076l-89.276 51.834c-0.102 0.008-0.226 0.012-0.372 0.012-1.522 0-2.946-0.58-3.416-0.91-1.496-1.608-14.44-15.322-33.028-28.988-27.512-20.23-53.536-30.486-77.334-30.486-24.034 0-50.262 10.458-77.954 31.086-18.702 13.93-31.702 27.906-33.204 29.546-0.476 0.336-1.916 0.932-3.45 0.932-0.12 0-0.226-0.002-0.318-0.008l-92.468-53.076c2.216-5.384 12.196-31.146 12.196-58.016 0-80.51-60.682-146.49-136.758-150.62-1.096-6.324-7.04-41.862-7.04-68.528 0-26.664 5.942-62.194 7.042-68.528 76.076-4.128 136.756-70.108 136.756-150.618 0-27.01-10.084-52.898-12.234-58.108l87.518-51.142c0.056-0.004 0.122-0.004 0.194-0.004 1.28 0 2.494 0.492 2.922 0.78 1.636 1.838 14.71 16.296 33.534 30.714 28.066 21.496 54.736 32.392 79.27 32.392 24.77 0 51.636-11.104 79.87-33.012C622.808 71.462 635.932 56.736 637.564 54.874L637.564 54.874zM524.326 245.962c-72.942 0-132.284 62.018-132.284 138.242 0 76.222 59.342 138.238 132.284 138.238 72.944 0 132.286-62.014 132.286-138.238C656.612 307.98 597.27 245.962 524.326 245.962L524.326 245.962zM524.326 475.422c-48.13 0-87.29-40.92-87.29-91.216 0-50.298 39.16-91.218 87.29-91.218 48.134 0 87.292 40.92 87.292 91.218C611.62 434.502 572.462 475.422 524.326 475.422L524.326 475.422z"  horiz-adv-x="1024" />

    
    <glyph glyph-name="shanchu" unicode="&#58924;" d="M967.9872 688.128 789.504 688.128c0.8192 3.072 1.024 6.0416 1.024 9.0112L790.528 770.048c0 52.1216-46.1824 94.208-103.2192 94.208L336.6912 864.256C279.6544 864.256 233.472 822.1696 233.472 770.048l0-72.9088c0-3.072 0.2048-5.9392 1.024-9.0112L56.0128 688.128C39.2192 688.128 25.6 674.2016 25.6 657.408c0-16.7936 13.6192-30.72 30.4128-30.72l911.9744 0c16.7936 0 30.4128 13.9264 30.4128 30.72C998.4 674.2016 984.7808 688.128 967.9872 688.128zM292.7616 688.128c0.8192 3.072 1.1264 6.0416 1.1264 9.0112L293.888 770.048c0 18.2272 19.6608 32.768 42.8032 32.768l350.6176 0c23.1424 0 42.8032-14.5408 42.8032-32.768l0-72.9088c0-3.072 0.3072-5.9392 1.1264-9.0112L292.7616 688.128zM659.456 69.12 659.456 483.9424c0 16.7936-13.4144 30.4128-30.208 30.4128-16.7936 0-30.208-13.6192-30.208-30.4128l0-414.8224c0-16.7936 13.4144-30.4128 30.208-30.4128C646.0416 38.7072 659.456 52.3264 659.456 69.12zM424.96 69.12 424.96 483.9424c0 16.7936-13.4144 30.4128-30.208 30.4128-16.7936 0-30.208-13.6192-30.208-30.4128l0-414.8224c0-16.7936 13.4144-30.4128 30.208-30.4128C411.5456 38.7072 424.96 52.3264 424.96 69.12zM844.8 531.8656c-16.7936 0-30.72-13.6192-30.72-30.4128l0-469.6064c0-37.1712-30.1056-67.7888-67.2768-67.7888L277.1968-35.9424c-37.1712 0-67.2768 30.6176-67.2768 67.7888L209.92 501.5552c0 16.7936-13.9264 30.4128-30.72 30.4128-16.7936 0-30.72-13.6192-30.72-30.4128l0-469.6064c0-70.7584 58.0608-129.2288 128.7168-129.2288l469.6064 0c70.656 0 128.7168 58.4704 128.7168 129.2288L875.52 501.5552C875.52 518.3488 861.5936 531.8656 844.8 531.8656z"  horiz-adv-x="1024" />

    
    <glyph glyph-name="wentifankuiHD" unicode="&#59036;" d="M512 896C229.23 896 0 666.769 0 384s229.23-512 512-512 512 229.23 512 512S794.77 896 512 896z m0-970.105C258.997-74.105 53.895 130.997 53.895 384S258.997 842.105 512 842.105c253.006 0 458.105-205.102 458.105-458.105S765.006-74.105 512-74.105z m-2.972 265.291c-12.611 0-23.592-4.675-32.93-14.013-9.348-9.351-14.013-20.318-14.013-32.93 0-12.611 4.665-23.582 14.013-32.93 9.337-9.34 20.318-14.013 32.93-14.013s23.582 4.673 32.93 14.013c9.337 9.348 14.013 20.318 14.013 32.93 0 12.611-4.675 23.579-14.013 32.93-9.349 9.338-20.319 14.013-32.93 14.013z m15.414 436.494c-42.978 0-77.77-13.312-104.394-39.936-27.096-27.096-40.637-57.923-40.637-92.483 0-17.287 8.868-25.923 26.624-25.923 17.276 0 26.152 9.337 26.624 28.025 1.401 22.42 10.038 41.216 25.923 56.401 15.875 15.171 37.133 22.771 63.758 22.771 26.624 0 47.522-6.899 62.706-20.669 15.174-13.784 22.771-33.28 22.771-58.503 0-19.16-3.042-33.873-9.108-44.14-2.803-5.147-8.179-12.382-16.115-21.72-7.947-9.351-18.688-20.318-32.229-32.93-45.781-44.84-68.662-89.223-68.662-133.12 0-11.682 1.63-19.739 4.904-24.172 3.263-4.446 11.439-6.656 24.522-6.656 15.875 0 23.821 10.267 23.821 30.828 0 10.267 1.161 21.248 3.503 32.93l-0.701-0.701c2.331 8.866 8.168 19.847 17.516 32.93 9.337 13.069 23.821 28.955 43.439 47.643 21.019 21.019 36.543 40.165 46.592 57.452 10.038 17.273 15.064 36.433 15.064 57.452 0 42.496-12.032 75.547-36.083 99.139-24.06 23.579-57.34 35.382-99.838 35.382z"  horiz-adv-x="1024" />

    
    <glyph glyph-name="gengduo1" unicode="&#58957;" d="M512 844.8c-253.44 0-460.8-207.36-460.8-460.8s207.36-460.8 460.8-460.8 460.8 207.36 460.8 460.8-207.36 460.8-460.8 460.8z m0-870.4c-225.28 0-409.6 184.32-409.6 409.6s184.32 409.6 409.6 409.6 409.6-184.32 409.6-409.6-184.32-409.6-409.6-409.6zM512 384m-51.2 0a51.2 51.2 0 1 1 102.4 0 51.2 51.2 0 1 1-102.4 0ZM307.2 384m-51.2 0a51.2 51.2 0 1 1 102.4 0 51.2 51.2 0 1 1-102.4 0ZM716.8 384m-51.2 0a51.2 51.2 0 1 1 102.4 0 51.2 51.2 0 1 1-102.4 0Z"  horiz-adv-x="1024" />

    
    <glyph glyph-name="chenggong" unicode="&#59153;" d="M512 896C228.919605 896 0 667.080395 0 384s228.919605-512 512-512 512 228.919605 512 512S794.358251 896 512 896z m0-976.338505c-256.361072 0-464.338505 207.977433-464.338505 464.338505S254.916784 849.060649 512 849.060649s464.338505-207.977433 464.338505-464.338505-207.977433-465.060649-464.338505-465.060649zM449.173484 160.135402c-8.665726 0-17.331453 3.610719-23.830748 9.38787L239.029619 347.892807c-13.720733 12.99859-14.442877 35.385049-0.722144 49.105783 12.99859 13.720733 35.385049 14.442877 49.105783 0.722143l158.149506-151.650211 287.413259 349.51763c12.276446 15.165021 33.940762 17.331453 49.105782 5.055007 15.165021-12.276446 17.331453-33.940762 5.055007-49.105782l-311.244005-378.403385c-6.499295-7.221439-15.165021-12.276446-24.552892-12.99859h-2.166431z"  horiz-adv-x="1024" />

    
    <glyph glyph-name="daochu" unicode="&#58968;" d="M845.2 131.3H180.8c-18.3 0-33.2 14.9-33.2 33.2V404c0 18.3 14.9 33.2 33.2 33.2S214 422.3 214 404v-206.3h598V404c0 18.3 14.9 33.2 33.2 33.2s33.2-14.9 33.2-33.2v-239.5c0-18.3-14.9-33.2-33.2-33.2zM465.3 811L345 690.8c-13.2-13.2-13.2-34.7 0-47.9 13.2-13.2 34.7-13.2 47.9 0l85.9 86.2V406c0-18.7 15.2-33.9 33.9-33.9s33.9 15.2 33.9 33.9V729.2l86.3-86.3c13.2-13.2 34.7-13.2 47.9 0 13.2 13.2 13.2 34.7 0 47.9L560.8 811c-26.4 26.4-69.1 26.4-95.5 0z"  horiz-adv-x="1024" />

    
    <glyph glyph-name="tianjia2" unicode="&#59164;" d="M507.448889 825.457778c-245.76 0-443.733333-197.973333-443.733333-443.733334s200.248889-443.733333 443.733333-443.733333c245.76 0 443.733333 197.973333 443.733333 443.733333 0 243.484444-197.973333 443.733333-443.733333 443.733334z m248.035555-477.866667h-213.902222v-213.902222c0-18.204444-15.928889-34.133333-34.133333-34.133333s-34.133333 15.928889-34.133333 34.133333v213.902222h-213.902223c-18.204444 0-34.133333 15.928889-34.133333 34.133333s15.928889 34.133333 34.133333 34.133334h213.902223v213.902222c0 18.204444 15.928889 34.133333 34.133333 34.133333s34.133333-15.928889 34.133333-34.133333v-213.902222h213.902222c18.204444 0 34.133333-15.928889 34.133334-34.133334s-13.653333-34.133333-34.133334-34.133333z"  horiz-adv-x="1024" />

    
    <glyph glyph-name="cuowu" unicode="&#59143;" d="M510.976-122.368c-135.168 0-262.656 52.736-358.4 148.48-95.744 95.744-148.48 223.232-148.48 358.4s52.736 262.656 148.48 358.4c95.744 95.744 223.232 148.48 358.4 148.48s262.656-52.736 358.4-148.48 148.48-223.232 148.48-358.4-52.736-262.656-148.48-358.4c-95.744-95.744-223.232-148.48-358.4-148.48z m0 955.904c-119.808 0-232.448-46.592-317.44-131.584s-131.584-197.632-131.584-317.44 46.592-232.448 131.584-317.44c84.992-84.48 197.632-131.584 317.44-131.584s232.448 46.592 317.44 131.584 131.584 197.632 131.584 317.44-46.592 232.448-131.584 317.44-197.632 131.584-317.44 131.584zM342.016 188.416c-7.68 0-14.848 3.072-20.48 8.704-11.264 11.264-11.264 29.696 0 40.96l337.408 337.408c11.264 11.264 29.696 11.264 40.96 0s11.264-29.696 0-40.96l-337.408-337.408c-5.632-5.632-12.8-8.704-20.48-8.704zM679.936 188.416c-7.68 0-14.848 3.072-20.48 8.704l-337.408 337.408c-11.264 11.264-11.264 29.696 0 40.96s29.696 11.264 40.96 0l337.408-337.408c11.264-11.264 11.264-29.696 0-40.96-5.632-5.632-13.312-8.704-20.48-8.704z"  horiz-adv-x="1024" />

    
    <glyph glyph-name="arrow-left" unicode="&#59140;" d="M399.399 383.754l292.155 292.16c12.278 12.27 12.278 32.186 0 44.457-12.27 12.278-32.186 12.278-44.457 0l-314.387-314.389c-12.281-12.27-12.281-32.186 0-44.457l314.388-314.388c6.137-6.14 14.183-9.211 22.228-9.211s16.092 3.071 22.228 9.211c12.281 12.27 12.281 32.186 0 44.457l-292.157 292.161z"  horiz-adv-x="1024" />

    
    <glyph glyph-name="right" unicode="&#59141;" d="M624.86499999 383.75300000000004l-292.15499999 292.159c-12.28 12.27-12.28 32.186 0 44.457 12.27 12.28 32.186 12.28 44.457 0l314.388-314.388c12.28-12.27 12.28-32.186 0-44.457l-314.388-314.387c-6.136-6.14-14.183-9.211-22.228-9.211s-16.092 3.071-22.228 9.211c-12.28 12.27-12.28 32.186 0 44.457l292.155 292.16z"  horiz-adv-x="1024" />

    
    <glyph glyph-name="refresh" unicode="&#59044;" d="M939.456 639.776c-16.672 5.984-34.976-2.72-40.896-19.36l-24.768-69.344c-28.992 65.312-74.784 122.72-133.088 165.92C555.328 854.272 291.296 816.768 152.32 633.344c-67.264-88.768-95.616-198.176-79.84-308.032 15.84-110.304 74.208-207.776 164.352-274.496 75.424-55.808 163.808-82.752 251.456-82.752 128.032 0 254.56 57.44 336.992 166.272 36.48 48.128 61.472 102.08 74.208 160.416 3.776 17.248-7.136 34.304-24.416 38.08-17.216 3.712-34.304-7.104-38.08-24.416-10.784-49.184-31.872-94.752-62.72-135.456-117.888-155.52-341.92-187.232-499.392-70.72-76.288 56.48-125.664 138.912-139.072 232.16-13.344 92.8 10.656 185.248 67.488 260.288 117.856 155.584 341.792 187.424 499.328 70.848 57.024-42.24 99.84-100.608 122.976-166.624l-109.984 42.944c-16.416 6.368-35.008-1.696-41.44-18.176-6.432-16.48 1.728-35.008 18.176-41.44l161.856-63.2c3.808-1.472 7.744-2.208 11.616-2.208 0.544 0 1.024 0.192 1.568 0.224 1.216-0.128 2.432-0.64 3.648-0.64 13.12 0 25.472 8.16 30.112 21.248l57.632 161.184C964.768 615.52 956.096 633.856 939.456 639.776z"  horiz-adv-x="1024" />

    
    <glyph glyph-name="pullleft" unicode="&#59167;" d="M512-64C264.96-64 64 136.96 64 384S264.96 832 512 832s448-200.96 448-448S759.04-64 512-64zM512 768C300.256 768 128 595.744 128 384c0-211.744 172.256-384 384-384 211.744 0 384 172.256 384 384C896 595.744 723.744 768 512 768zM290.368 371.648c0.032-0.128 0.192-0.256 0.256-0.384 1.536-3.616 3.648-7.072 6.592-10.048 0.032-0.032 0.064-0.032 0.096-0.064s0.032-0.064 0.064-0.096l158.912-159.36c12.48-12.512 32.704-12.576 45.248-0.064 12.512 12.48 12.544 32.704 0.064 45.248l-103.328 103.616 305.056 0c17.664 0 32 14.336 32 32s-14.336 32-32 32l-306.752 0 106.112 104.96c12.576 12.448 12.672 32.672 0.256 45.248-6.24 6.336-14.496 9.504-22.752 9.504-8.128 0-16.256-3.104-22.496-9.248l-160.256-158.496C288 397.088 285.632 383.296 290.368 371.648z"  horiz-adv-x="1024" />

    
    <glyph glyph-name="pullright" unicode="&#59168;" d="M512-64C264.96-64 64 136.96 64 384S264.96 832 512 832s448-200.96 448-448S759.04-64 512-64zM512 768C300.256 768 128 595.744 128 384c0-211.744 172.256-384 384-384 211.744 0 384 172.256 384 384C896 595.744 723.744 768 512 768zM732.96 394.848c-0.032 0.128-0.192 0.256-0.256 0.384-1.536 3.616-3.648 7.072-6.592 10.048-0.032 0.032-0.064 0.032-0.096 0.064s-0.032 0.064-0.064 0.096l-158.912 159.36c-12.48 12.48-32.704 12.576-45.248 0.064-12.512-12.48-12.544-32.736-0.064-45.248L625.056 416 320 416c-17.664 0-32-14.336-32-32s14.336-32 32-32l306.752 0-106.112-104.96c-12.576-12.448-12.672-32.672-0.256-45.248 6.24-6.336 14.496-9.504 22.752-9.504 8.128 0 16.256 3.104 22.496 9.248l160.256 158.496C735.328 369.408 737.728 383.232 732.96 394.848z"  horiz-adv-x="1024" />

    
    <glyph glyph-name="triangle-bottom" unicode="&#58923;" d="M523.955 63.827l323.744 512c6.24 9.856 6.624 22.336 0.992 32.512-5.632 10.24-16.384 16.576-28.033 16.576h-647.328c-11.647 0-22.4-6.336-28.033-16.576-2.656-4.8-3.968-10.112-3.968-15.424 0-5.952 1.664-11.904 4.929-17.088l323.616-512c5.856-9.28 16.064-14.911 27.040-14.912s21.184 5.632 27.040 14.912z"  horiz-adv-x="1024" />

    
    <glyph glyph-name="triangle-right" unicode="&#58925;" d="M817.088 411.040l-512 323.744c-9.856 6.24-22.336 6.624-32.512 0.992-10.24-5.632-16.576-16.384-16.576-28.032v-647.328c0-11.648 6.336-22.4 16.576-28.032 4.8-2.656 10.112-3.968 15.424-3.968 5.952 0 11.904 1.664 17.088 4.928l512 323.616c9.28 5.856 14.912 16.064 14.912 27.040s-5.632 21.184-14.912 27.040z"  horiz-adv-x="1024" />

    
    <glyph glyph-name="triangle-left" unicode="&#58926;" d="M270.912 411.040l512 323.744c9.856 6.24 22.336 6.624 32.512 0.992 10.24-5.632 16.576-16.384 16.576-28.032v-647.328c0-11.648-6.336-22.4-16.576-28.032-4.8-2.656-10.112-3.968-15.424-3.968-5.952 0-11.904 1.664-17.088 4.928l-512 323.616c-9.28 5.856-14.912 16.064-14.912 27.040s5.632 21.184 14.912 27.040z"  horiz-adv-x="1024" />

    
    <glyph glyph-name="triangle-top" unicode="&#58933;" d="M523.955 598.048l323.744-512c6.24-9.856 6.624-22.336 0.992-32.512-5.632-10.24-16.384-16.576-28.033-16.576h-647.328c-11.647 0-22.4 6.336-28.033 16.576-2.656 4.8-3.968 10.112-3.968 15.424 0 5.952 1.664 11.904 4.929 17.088l323.616 512c5.856 9.28 16.064 14.911 27.040 14.912s21.184-5.632 27.040-14.912z"  horiz-adv-x="1024" />

    
    <glyph glyph-name="guanbi" unicode="&#59073;" d="M512-128c-282.304 0-512 229.696-512 512s229.696 512 512 512c282.304 0 512-229.696 512-512 0-282.304-229.696-512-512-512v0zM512 847.232c-255.424 0-463.232-207.808-463.232-463.232s207.808-463.168 463.232-463.168c255.424 0 463.168 207.744 463.168 463.168 0 255.424-207.744 463.232-463.168 463.232v0zM764.8 583.744l-53.12 53.12-199.68-199.744-199.744 199.744-53.12-53.12 199.744-199.744-199.744-199.68 53.12-53.12 199.744 199.68 199.68-199.68 53.12 53.12-199.68 199.68 199.68 199.744zM764.8 583.744z"  horiz-adv-x="1024" />

    
    <glyph glyph-name="shuangxianyoujiantou" unicode="&#58927;" d="M825.6 716.8 467.2 358.4c-12.8-12.8-25.6-12.8-38.4 0L422.4 364.8c-12.8 12.8-12.8 25.6 0 38.4l358.4 358.4c12.8 12.8 25.6 12.8 38.4 0l6.4-6.4C838.4 742.4 838.4 729.6 825.6 716.8zM467.2 409.6l358.4-358.4c12.8-12.8 12.8-25.6 0-38.4l-6.4-6.4c-12.8-12.8-25.6-12.8-38.4 0L422.4 364.8c-12.8 12.8-12.8 25.6 0 38.4l6.4 6.4C441.6 422.4 454.4 422.4 467.2 409.6zM627.2 716.8 268.8 358.4C256 345.6 243.2 345.6 230.4 358.4L224 364.8c-12.8 12.8-12.8 25.6 0 38.4l358.4 358.4c12.8 12.8 25.6 12.8 38.4 0l6.4-6.4C640 742.4 640 729.6 627.2 716.8zM268.8 409.6l358.4-358.4c12.8-12.8 12.8-25.6 0-38.4l-6.4-6.4c-12.8-12.8-25.6-12.8-38.4 0L224 364.8c-12.8 12.8-12.8 25.6 0 38.4l6.4 6.4C243.2 422.4 256 422.4 268.8 409.6z"  horiz-adv-x="1024" />

    
    <glyph glyph-name="shuangxianzuojiantou" unicode="&#58928;" d="M224 51.2l358.4 358.4c12.8 12.8 25.6 12.8 38.4 0l6.4-6.4c12.8-12.8 12.8-25.6 0-38.4l-358.4-358.4c-12.8-12.8-25.6-12.8-38.4 0l-6.4 6.4C211.2 25.6 211.2 38.4 224 51.2zM582.4 358.4 224 716.8c-12.8 12.8-12.8 25.6 0 38.4l6.4 6.4c12.8 12.8 25.6 12.8 38.4 0l358.4-358.4c12.8-12.8 12.8-25.6 0-38.4L620.8 358.4C608 345.6 588.8 345.6 582.4 358.4zM422.4 51.2l358.4 358.4c12.8 12.8 25.6 12.8 38.4 0l6.4-6.4c12.8-12.8 12.8-25.6 0-38.4l-358.4-358.4c-12.8-12.8-25.6-12.8-38.4 0l-6.4 6.4C409.6 25.6 409.6 38.4 422.4 51.2zM780.8 358.4 422.4 716.8c-12.8 12.8-12.8 25.6 0 38.4l6.4 6.4c12.8 12.8 25.6 12.8 38.4 0l358.4-358.4c12.8-12.8 12.8-25.6 0-38.4l-6.4-6.4C806.4 345.6 793.6 345.6 780.8 358.4z"  horiz-adv-x="1024" />

    
    <glyph glyph-name="liebiao" unicode="&#58975;" d="M800 352l-576 0C204.8 352 192 364.8 192 384l0 0c0 19.2 12.8 32 32 32l576 0C819.2 416 832 403.2 832 384l0 0C832 364.8 819.2 352 800 352zM800 544l-576 0C204.8 544 192 556.8 192 576l0 0c0 19.2 12.8 32 32 32l576 0C819.2 608 832 595.2 832 576l0 0C832 556.8 819.2 544 800 544zM800 160l-576 0C204.8 160 192 172.8 192 192l0 0c0 19.2 12.8 32 32 32l576 0c19.2 0 32-12.8 32-32l0 0C832 172.8 819.2 160 800 160z"  horiz-adv-x="1024" />

    
    <glyph glyph-name="peoplelist" unicode="&#59326;" d="M771.2 512c0 160-128 288-288 288s-288-128-288-288c0-108.8 57.6-201.6 147.2-249.6-121.6-48-214.4-153.6-240-288-3.2-16 6.4-35.2 25.6-38.4h6.4c16 0 28.8 9.6 32 25.6 28.8 150.4 160 259.2 313.6 262.4h6.4c153.6 0 284.8 131.2 284.8 288zM259.2 512c0 124.8 99.2 224 224 224s224-99.2 224-224c0-121.6-99.2-220.8-220.8-224h-9.6c-121.6 6.4-217.6 105.6-217.6 224zM704 224c0-19.2 12.8-32 32-32h160c19.2 0 32 12.8 32 32s-12.8 32-32 32h-160c-16 0-32-12.8-32-32zM896 131.2h-256c-19.2 0-32-12.8-32-32s12.8-32 32-32h256c19.2 0 32 12.8 32 32s-12.8 32-32 32zM896 3.2h-252.8c-19.2 0-32-12.8-32-32s12.8-32 32-32h252.8c19.2 0 32 12.8 32 32s-16 32-32 32z"  horiz-adv-x="1024" />

    
    <glyph glyph-name="shijian" unicode="&#59280;" d="M507.398192-59.662589c-247.033279 0-447.241091 200.233394-447.241091 447.233927 0 247.019976 200.207811 447.233927 447.241091 447.233927 246.974951 0 447.233927-200.213951 447.233927-447.233927C954.632119 140.569782 754.374166-59.662589 507.398192-59.662589zM507.398192 764.915499c-208.417797 0-383.241474-169.003112-383.241474-377.440351 0-208.378911 174.919868-383.343805 383.337665-383.343805 208.430076 0 383.349945 174.96387 383.349945 383.343805C890.844328 595.912387 715.822129 764.915499 507.398192 764.915499zM443.609377 323.585025 443.609377 579.140399l63.883983 0 0-191.671391 191.671391 0 0-63.883983L443.609377 323.585025z"  horiz-adv-x="1024" />

    
    <glyph glyph-name="zhuyi" unicode="&#58910;" d="M512-128C229.239467-128 0 101.239467 0 384 0 666.794667 229.239467 896 512 896 794.760533 896 1024 666.794667 1024 384 1024 101.239467 794.760533-128 512-128ZM512 827.767467C266.922667 827.767467 68.266667 629.077333 68.266667 384.034133 68.266667 138.9568 266.922667-59.6992 512-59.6992 757.077333-59.6992 955.733333 138.9568 955.733333 384.034133 955.733333 629.077333 757.077333 827.767467 512 827.767467ZM529.066667 76.834133 494.933333 76.834133C485.512533 76.834133 477.866667 84.48 477.866667 93.9008L477.866667 162.167467C477.866667 171.588267 485.512533 179.234133 494.933333 179.234133L529.066667 179.234133C538.487467 179.234133 546.133333 171.588267 546.133333 162.167467L546.133333 93.9008C546.133333 84.48 538.487467 76.834133 529.066667 76.834133ZM529.066667 213.367467 494.933333 213.367467C485.512533 213.367467 477.866667 221.013333 477.866667 230.434133L477.866667 674.133333C477.866667 683.588267 485.512533 691.2 494.933333 691.2L529.066667 691.2C538.487467 691.2 546.133333 683.588267 546.133333 674.133333L546.133333 230.434133C546.133333 221.013333 538.487467 213.367467 529.066667 213.367467Z"  horiz-adv-x="1024" />

    
    <glyph glyph-name="danjiantoushang" unicode="&#58934;" d="M940.8 204.8L537.6 608c-12.8 12.8-32 12.8-44.8 0L83.2 198.4c-12.8-12.8-12.8-32 0-44.8s32-12.8 44.8 0l384 384 384-384c12.8-12.8 32-12.8 44.8 0s12.8 38.4 0 51.2z"  horiz-adv-x="1024" />

    
    <glyph glyph-name="danjiantouxia" unicode="&#58935;" d="M83.2 563.2l409.6-409.6c12.8-12.8 32-12.8 44.8 0l409.6 409.6c12.8 12.8 12.8 32 0 44.8s-32 12.8-44.8 0l-384-384-384 384c-12.8 12.8-32 12.8-44.8 0s-19.2-32-6.4-44.8z"  horiz-adv-x="1024" />

    
    <glyph glyph-name="jianshu" unicode="&#58940;" d="M857.6 825.6H172.8c-57.6 0-102.4-44.8-102.4-102.4v-684.8c0-57.6 44.8-102.4 102.4-102.4h684.8c57.6 0 102.4 44.8 102.4 102.4V723.2c-6.4 57.6-51.2 102.4-102.4 102.4z m-51.2-480h-576c-19.2 0-32 12.8-32 32s12.8 32 32 32h576c19.2 0 32-12.8 32-32 0-12.8-19.2-32-32-32z"  horiz-adv-x="1024" />

    
    <glyph glyph-name="jiashu" unicode="&#58941;" d="M851.2 832H166.4C115.2 832 64 787.2 64 729.6v-684.8C64-12.8 115.2-64 166.4-64h684.8c57.6 0 102.4 44.8 102.4 102.4V729.6C960 787.2 908.8 832 851.2 832zM800 352H544v-256c0-19.2-12.8-32-32-32s-32 12.8-32 32V352H224c-19.2 0-32 12.8-32 32s12.8 32 32 32h256V672c0 19.2 12.8 32 32 32s32-12.8 32-32v-256h256c19.2 0 32-12.8 32-32s-12.8-32-32-32z"  horiz-adv-x="1024" />

    
    <glyph glyph-name="shangchuan" unicode="&#58969;" d="M768.35456 480a256 256 0 1 1-512 0 192 192 0 1 1 0-384v-64a256 256 0 0 0-58.88 505.216 320.128 320.128 0 0 0 629.76 0A256.128 256.128 0 0 0 768.35456 32v64a192 192 0 0 1 0 384z m-512-384h128v-64H256.35456v64z m384 0h128v-64h-128v64zM539.04256 306.816v-333.056a32.448 32.448 0 0 0-32-32.192 32.448 32.448 0 0 0-32 32.192V306.816l-36.096-36.096a32.192 32.192 0 0 0-45.056 0.192 31.616 31.616 0 0 0-0.192 45.056l90.88 90.88a31.36 31.36 0 0 0 22.528 9.152 30.08 30.08 0 0 0 22.4-9.088l90.88-90.944a32.192 32.192 0 0 0-0.192-45.056 31.616 31.616 0 0 0-45.056-0.192l-36.096 36.096z"  horiz-adv-x="1024" />

    
    <glyph glyph-name="rili" unicode="&#58919;" d="M832 768h-128v32a32 32 0 0 1-64 0V768H352v32a32 32 0 0 1-64 0V768H192a128 128 0 0 1-128-128v-576a128 128 0 0 1 128-128h640a128 128 0 0 1 128 128V640a128 128 0 0 1-128 128z m64-704a64 64 0 0 0-64-64H192a64 64 0 0 0-64 64V640a64 64 0 0 0 64 64h96v-32a32 32 0 0 1 64 0V704H640v-32a32 32 0 0 1 64 0V704h128a64 64 0 0 0 64-64v-576zM352 544h-64a32 32 0 0 1 0-64h64a32 32 0 0 1 0 64zM544 544h-64a32 32 0 0 1 0-64h64a32 32 0 0 1 0 64zM736 544h-64a32 32 0 0 1 0-64h64a32 32 0 0 1 0 64zM352 384h-64a32 32 0 0 1 0-64h64a32 32 0 0 1 0 64zM544 384h-64a32 32 0 0 1 0-64h64a32 32 0 0 1 0 64zM736 384h-64a32 32 0 0 1 0-64h64a32 32 0 0 1 0 64zM352 224h-64a32 32 0 0 1 0-64h64a32 32 0 0 1 0 64zM544 224h-64a32 32 0 0 1 0-64h64a32 32 0 0 1 0 64zM736 224h-64a32 32 0 0 1 0-64h64a32 32 0 0 1 0 64z"  horiz-adv-x="1024" />

    


  </font>
</defs>
</svg>
